<svg id="Icon" xmlns="http://www.w3.org/2000/svg" width="64" height="64" viewBox="0 0 64 64">
  <rect id="Icon-2" data-name="Icon" width="64" height="64" rx="10" fill="#4a3aaa"/>
  <g id="codesandbox" transform="translate(16 16)">
    <path id="Vector" d="M24,18.664V8a2.667,2.667,0,0,0-1.333-2.307L13.333.357a2.667,2.667,0,0,0-2.667,0L1.333,5.691A2.667,2.667,0,0,0,0,8V18.664a2.667,2.667,0,0,0,1.333,2.307L10.667,26.3a2.667,2.667,0,0,0,2.667,0l9.333-5.333A2.667,2.667,0,0,0,24,18.664Z" transform="translate(4 2.669)" fill="none" stroke="#fff" stroke-linecap="round" stroke-linejoin="round" stroke-width="2"/>
    <path id="Vector-2" data-name="Vector" d="M0,0,6,3.467,12,0" transform="translate(10 5.613)" fill="none" stroke="#fff" stroke-linecap="round" stroke-linejoin="round" stroke-width="2"/>
    <path id="Vector-3" data-name="Vector" d="M6,10.387V3.467L0,0" transform="translate(4 16)" fill="none" stroke="#fff" stroke-linecap="round" stroke-linejoin="round" stroke-width="2"/>
    <path id="Vector-4" data-name="Vector" d="M6,0,0,3.467v6.92" transform="translate(22 16)" fill="none" stroke="#fff" stroke-linecap="round" stroke-linejoin="round" stroke-width="2"/>
    <path id="Vector-5" data-name="Vector" d="M0,0,11.64,6.733,23.28,0" transform="translate(4.36 9.28)" fill="none" stroke="#fff" stroke-linecap="round" stroke-linejoin="round" stroke-width="2"/>
    <path id="Vector-6" data-name="Vector" d="M0,13.44V0" transform="translate(16 16)" fill="none" stroke="#fff" stroke-linecap="round" stroke-linejoin="round" stroke-width="2"/>
  </g>
</svg>
