<svg xmlns="http://www.w3.org/2000/svg" width="724" height="782" viewBox="0 0 724 782">
  <path id="Image" d="M498.589,636.052c19.321,39.205,44.009,123.2-11.807,145.543-18.248,2.864-53.562-8.163-48.839-75.188-17,9.667-58.178,20.838-86.944-11.815l-38.642,71.966c-22.9,12.889-68.911,23.845-69.77-35.446L302.159,629.07c-8.766-21.84-26.835-68.206-28.981-78.948-14.133,14.143-45.512,43.394-57.963,47.261l35.422,12.352c-12.7,34.909-47.122,108.808-83.188,125.135C120.4,729.142,21.038,714.14,0,699.962c7.335-28.106,32.309-90.87,73.527-117.079H129.88c15.922-26.853,68.589-86.9,151.884-112.245,5.367-7.519,19.75-22.986,34.348-24.7-30.413-29.717-92.419-108.486-97.142-185.822l4.294-26.853c-4.83-45.113-9.124-147.047,12.344-193.878,7.156-29.717,29.3-71.321,60.646,0l25.761,63.373c59.215-20.408,194.5-44.9,261.907,20.408,16.459-21.482,51.2-57.68,58.5-30.612,7.693,21.661,19.428,75.833,4.83,119.227,1.61,43.681-1.288,138.561-25.761,168.636s-38.821,47.261-42.935,52.095c-14.312,9.13-45.082,28.464-53.669,32.761,16.1.716,52.059,5.693,67.087,19.871,37.39-2.327,112.92-3.437,115.926,10.741s2.326,4.834,1.61-1.611L724,499.639l-4.294,25.779h-10.2l-4.83-4.834v8.593l-10.2,4.3c-1.968,15.038-15.564,47.261-54.206,55.854-28.266,17.186-82.007,37.057-70.844-20.945-12.523-8.951-37.569-28.464-37.569-34.909C527.391,561.938,514.475,622.3,498.589,636.052Z" fill="#6a59ce"/>
</svg>
