<svg xmlns="http://www.w3.org/2000/svg" width="439" height="289" viewBox="0 0 439 289">
  <path id="Image" d="M439-178.7c-4.946-2.411-15.633-9.041-18.818-16.274-3.981-9.041,30.76,64.371,7.238,77.028-18.818,10.126-30.036-4.46-33.293-13.019-1.809,43.878-17.8,116.157-67.309,54.245l-15.923-30.739C302.934-70.693,277.385,2.261,238.881-.054s-23.04-112.589-10.494-167.437c-22.8,20.252-74.04,62.635-96.622,70.157-.121-21.457,2.461-69.8,13.751-91.494-33.413,15.189-108.564,36.453-141.856,0C-2.13-201-5.315-238.082,28.268-289H439Z" transform="translate(439) rotate(180)" fill="#6a59ce"/>
</svg>
