<svg xmlns="http://www.w3.org/2000/svg" width="369.138" height="394" viewBox="0 0 369.138 394">
  <path id="Image" d="M244.5,394c5.167-12.5,15.1-40,13.5-50,10.167,13.5,40.2,32.8,79,2,11.5,8.833,32.8,18.5,26-13.5,6.833-9,13.7-29.9-13.5-41.5-2.333,1-7.1,3.9-7.5,7.5-4.5,0-13.7-1.5-14.5-7.5,27.5-25.167,67.9-90.7,9.5-151.5C346.333,106,359.4,35.2,337,20c-9.5,3.333-31.9,17.9-45.5,49.5C264.167,41.833,183.3,1.2,78.5,60c-6.833-17.833-24-54.8-38-60-12.833,19.833-32.4,80.2-8,163,1.667,31.833,19.8,102,79,128-7.167,2.667-22.2,9.2-25,14-2-4.333-8.5-9.9-18.5,2.5L0,394H57.5c6.167-7.5,18.8-23.9,20-29.5l9,29.5Z" fill="#6a59ce"/>
</svg>
